<svg width="14" height="4" viewBox="0 0 14 4" fill="none" xmlns="http://www.w3.org/2000/svg">
<path d="M2.00001 0.333252C1.08334 0.333252 0.333344 1.08325 0.333344 1.99992C0.333344 2.91658 1.08334 3.66658 2.00001 3.66658C2.91668 3.66658 3.66668 2.91658 3.66668 1.99992C3.66668 1.08325 2.91668 0.333252 2.00001 0.333252ZM12 0.333252C11.0833 0.333252 10.3333 1.08325 10.3333 1.99992C10.3333 2.91658 11.0833 3.66658 12 3.66658C12.9167 3.66658 13.6667 2.91658 13.6667 1.99992C13.6667 1.08325 12.9167 0.333252 12 0.333252ZM7.00001 0.333252C6.08334 0.333252 5.33334 1.08325 5.33334 1.99992C5.33334 2.91658 6.08334 3.66658 7.00001 3.66658C7.91668 3.66658 8.66668 2.91658 8.66668 1.99992C8.66668 1.08325 7.91668 0.333252 7.00001 0.333252Z" fill="#C2CFE0"/>
</svg>
